PathFileType	4	(X/Y/Z)	Kaydara	
DataRate	CameraRate	NumFrames	NumMarkers	Units	OrigDataRate	OrigDataStartFrame	OrigNumFrames	
60.00	60.00	4	74	mm	60.00	1618	67	
Frame#	Time	Y_rasi			Y_rpsi			Y_lpsi			Y_fneck			Y_bneck			Y_fhead			Y_rhead			Y_rshld			Y_relbtop			Y_relbext			Y_relblow			Y_rwrext			Y_rwrtop			Y_rwrlow			Y_lshld			Y_lelbext			Y_lelblow			Y_lelbtop			Y_lwrext			Y_lwrtop			Y_lwrlow			Y_rtopleg			Y_ltopleg			Y_rkneefr			Y_rkneebk			Y_rkneeis			Y_lkneefr			Y_lknssbk			Y_lkneeis			Y_rankfr			Y_rankis			Y_rankbk			Y_lankfr			Y_lankbk			Y_lankis			Y_lhead			Y_lasi			D_rpsi			D_lpsi			D_fneck			D_bneck			D_fhead			D_rhead			D_lhead			D_rshld			D_relbtop			D_relbext			D_relblow			D_rwrext			D_rwrtop			D_rwrlow			D_lshld			D_lelbext			D_lelblow			D_lelbtop			D_lwrext			D_lwrtop			D_lwrlow			D_rtopleg			D_ltopleg			D_rkneefr			D_rkneebk			D_rkneeis			D_lkneefr			D_lknssbk			D_lkneeis			D_rankfr			D_rankis			D_rankbk			D_lankfr			D_lankbk			D_lankis			D_lasi			D_rasi			
		X1	Y1	Z1	X2	Y2	Z2	X3	Y3	Z3	X4	Y4	Z4	X5	Y5	Z5	X6	Y6	Z6	X7	Y7	Z7	X8	Y8	Z8	X9	Y9	Z9	X10	Y10	Z10	X11	Y11	Z11	X12	Y12	Z12	X13	Y13	Z13	X14	Y14	Z14	X15	Y15	Z15	X16	Y16	Z16	X17	Y17	Z17	X18	Y18	Z18	X19	Y19	Z19	X20	Y20	Z20	X21	Y21	Z21	X22	Y22	Z22	X23	Y23	Z23	X24	Y24	Z24	X25	Y25	Z25	X26	Y26	Z26	X27	Y27	Z27	X28	Y28	Z28	X29	Y29	Z29	X30	Y30	Z30	X31	Y31	Z31	X32	Y32	Z32	X33	Y33	Z33	X34	Y34	Z34	X35	Y35	Z35	X36	Y36	Z36	X37	Y37	Z37	X38	Y38	Z38	X39	Y39	Z39	X40	Y40	Z40	X41	Y41	Z41	X42	Y42	Z42	X43	Y43	Z43	X44	Y44	Z44	X45	Y45	Z45	X46	Y46	Z46	X47	Y47	Z47	X48	Y48	Z48	X49	Y49	Z49	X50	Y50	Z50	X51	Y51	Z51	X52	Y52	Z52	X53	Y53	Z53	X54	Y54	Z54	X55	Y55	Z55	X56	Y56	Z56	X57	Y57	Z57	X58	Y58	Z58	X59	Y59	Z59	X60	Y60	Z60	X61	Y61	Z61	X62	Y62	Z62	X63	Y63	Z63	X64	Y64	Z64	X65	Y65	Z65	X66	Y66	Z66	X67	Y67	Z67	X68	Y68	Z68	X69	Y69	Z69	X70	Y70	Z70	X71	Y71	Z71	X72	Y72	Z72	X73	Y73	Z73	X74	Y74	Z74	

34	26.950	-573.98674	1091.07803	-126.82984	-574.20845	1068.10547	-308.66648	-345.26558	1054.45320	-245.92949	-487.33948	1429.56055	-159.95130	-406.42258	1478.61267	-241.58466	-524.22626	1629.64828	-86.94978	-499.18442	1575.98129	-256.68612	-632.14302	1420.31937	-296.03552	-657.83653	1142.64679	-334.19537	-666.34033	1144.10126	-395.50491	-601.26488	1117.39586	-406.10653	-725.31296	1027.29019	-170.34147	-727.71690	1067.47490	-156.97808	-685.79025	1078.51059	-149.11200	-265.56393	1378.98956	-120.21330	-177.25552	1071.45103	-158.88321	-223.04047	1059.90402	-198.63579	-237.87779	1101.40877	-118.79365	-396.88103	950.34035	-50.62433	-389.12155	964.23264	-10.37688	-404.99775	1009.28932	-17.75017	-649.18304	915.54665	-260.22030	-307.87186	904.23714	-133.92834	-644.12895	413.58070	-281.41142	-623.85483	460.82954	-355.45040	-548.16814	423.09860	-272.21989	-344.32190	473.91117	-116.43652	-284.08796	496.23806	-212.83394	-403.30162	467.32807	-194.13189	-633.77739	143.01839	-331.29208	-562.80918	135.72750	-342.16881	-603.49491	137.77553	-396.67057	-277.57509	132.44420	-171.12827	-261.30348	130.70823	-238.65271	-334.40861	125.12854	-207.99335	-377.71767	1560.74524	-165.56627	-418.43906	1076.52443	-86.66808	-993.40958	1168.52570	575.74398	-1124.56459	1174.27399	456.18980	-983.91045	1599.75006	423.95683	-1080.71869	1648.66608	485.10265	-947.27646	1773.28766	283.75288	-994.07730	1800.92926	454.22588	-1107.09709	1774.20410	354.96056	-897.34573	1559.78668	586.52493	-859.68597	1193.48175	574.26952	-824.66423	1207.94785	627.17957	-897.59621	1192.45750	656.70914	-769.80133	922.55661	572.52308	-741.98288	937.24861	544.44595	-768.88237	943.34076	504.12891	-1210.67825	1539.86725	354.67251	-1208.31055	1168.65311	297.96658	-1190.30083	1148.68866	371.34541	-1145.93002	1174.80034	304.15874	-1155.03387	920.35324	268.98104	-1126.60110	937.39967	238.04184	-1090.62271	937.58507	270.13626	-874.91890	1031.97945	575.23670	-1132.31232	1026.01753	332.98752	-767.21748	565.08060	420.53146	-797.20894	562.23248	530.60581	-880.88234	540.53169	442.57519	-1014.26857	467.32708	361.73027	-1109.76761	513.90347	403.28308	-1025.80185	503.31295	472.88414	-793.89122	197.38089	528.14270	-866.58890	189.41912	501.83132	-853.83858	198.59518	586.68201	-1053.59108	157.94998	408.73486	-1075.61592	153.26530	486.03111	-991.89087	164.77879	447.22237	-1025.87692	1187.96600	326.66245	-872.10068	1184.66690	460.82150 
35	26.967	-573.02582	1091.03165	-127.50107	-574.04011	1068.30933	-307.80298	-344.79942	1054.40613	-245.96024	-487.76367	1429.24591	-158.48216	-406.80355	1478.55194	-239.96002	-524.50195	1629.31091	-84.78229	-499.83974	1575.81543	-254.65021	-632.23083	1419.21417	-295.68768	-653.68172	1139.28795	-341.62750	-661.99356	1143.60458	-402.32689	-596.06041	1119.82590	-414.36745	-717.60857	1004.99588	-187.27505	-721.12892	1043.23814	-169.03614	-678.49388	1053.95554	-159.73381	-265.60123	1378.72650	-119.16521	-176.64614	1071.52664	-160.24210	-222.78217	1060.09888	-199.67705	-236.56794	1101.69189	-119.92620	-396.34468	949.43649	-50.88346	-387.63165	962.58560	-11.31758	-404.00146	1009.13376	-18.15155	-649.00108	915.60150	-260.56568	-307.69436	904.31831	-133.83092	-644.19907	413.57697	-281.44928	-623.80737	460.79632	-355.48149	-548.34705	422.98851	-272.08349	-344.43748	473.92006	-116.13171	-284.15859	496.22215	-212.53778	-403.41511	467.29839	-194.06614	-633.76854	142.98164	-331.32267	-562.75341	135.71454	-342.16743	-603.47435	137.73848	-396.65039	-277.55863	132.42821	-171.13956	-261.28641	130.71607	-238.63005	-334.40067	125.11117	-207.94046	-378.15090	1560.24078	-163.93463	-418.55843	1076.32240	-86.51075	-993.58299	1168.84079	575.88226	-1124.81583	1174.53674	456.40694	-984.40254	1600.11032	423.62110	-1081.40785	1648.85025	484.77997	-948.03665	1773.87756	283.64109	-994.91554	1801.07651	454.08382	-1108.01552	1774.26605	354.64016	-897.54799	1560.65903	586.10748	-859.09737	1189.03419	576.54430	-824.65958	1209.05579	627.88036	-897.23907	1193.69446	658.36227	-770.88150	923.23380	574.05602	-742.92542	938.04924	546.45508	-769.00253	944.18617	505.71182	-1210.96031	1539.78806	354.30714	-1206.59279	1168.61832	297.04681	-1189.10461	1148.72543	370.51258	-1144.21921	1175.03029	303.42173	-1152.59804	920.53787	268.10513	-1123.72025	937.64587	237.46355	-1088.28491	937.90421	269.46060	-874.87198	1032.60696	575.41668	-1132.61192	1026.00853	333.52329	-766.25710	565.79437	420.17128	-796.30081	562.84168	530.47340	-879.92401	541.11450	442.25292	-1015.09865	467.39101	362.70847	-1110.58365	513.96717	404.45179	-1026.77307	503.37009	474.22298	-793.59024	197.95259	527.77802	-866.15303	190.22442	501.12076	-853.75900	199.37931	586.10851	-1053.86475	158.03009	409.07139	-1076.07590	153.36665	486.55407	-992.04239	164.84377	447.34169	-1026.39145	1188.05809	326.61613	-872.44545	1184.90845	460.83900 
36	26.983	-572.24792	1090.16617	-127.99548	-573.61153	1068.57811	-307.65862	-344.88972	1054.46030	-245.13836	-488.15849	1428.77655	-157.07454	-407.37385	1478.53775	-238.25592	-525.20134	1629.12384	-83.05912	-500.63560	1575.48676	-252.85542	-632.42313	1417.93518	-295.24740	-649.51584	1137.04681	-349.10065	-658.93867	1143.89465	-409.22218	-592.70443	1122.27135	-422.95082	-709.44054	988.60039	-203.49792	-712.64328	1024.83017	-181.21752	-670.07965	1034.33426	-172.35697	-265.84505	1378.55530	-117.68930	-176.01919	1071.86760	-161.44676	-222.22240	1060.66017	-200.76416	-235.80494	1101.86974	-120.64319	-395.00912	948.98094	-51.31539	-385.71732	962.36832	-11.62409	-402.44526	1008.60268	-18.67327	-648.79128	915.66818	-261.00960	-307.91002	904.21463	-133.47084	-644.21188	413.57948	-281.53006	-623.72574	460.76107	-355.56305	-548.33355	422.93148	-272.09909	-344.54010	473.97213	-116.09116	-284.16643	496.23878	-212.31834	-403.41599	467.29729	-194.01247	-633.79311	142.98458	-331.36299	-562.73399	135.68330	-342.18235	-603.42098	137.71958	-396.69357	-277.61812	132.38748	-171.06350	-261.28496	130.70032	-238.60220	-334.37550	125.10355	-207.80239	-379.26884	1560.20050	-161.78106	-418.72784	1076.00548	-86.01748	-993.55095	1169.43863	575.93891	-1124.94728	1174.93996	456.59584	-985.07248	1600.65445	423.23315	-1081.89140	1649.11331	484.37637	-948.60771	1774.40399	283.46951	-995.84267	1801.44699	453.82210	-1108.67119	1774.46503	354.27181	-897.92809	1561.27396	585.51445	-858.93028	1190.18005	578.16452	-824.52805	1210.12878	629.17809	-897.03659	1194.91356	660.30479	-771.70059	923.70537	575.92113	-743.05870	938.64670	548.55877	-768.93448	945.10864	507.81422	-1211.34232	1539.84192	353.92490	-1205.10307	1168.72551	296.41491	-1188.05794	1148.81859	369.99783	-1142.61078	1175.31166	303.30170	-1149.88441	920.82031	267.19603	-1120.82031	938.17993	236.99295	-1085.71533	938.29636	269.19254	-874.69933	1033.27156	575.54401	-1132.72324	1026.13457	334.34044	-765.06065	566.63246	419.80835	-795.05951	563.56934	529.99733	-878.65768	541.89957	441.84017	-1016.36696	467.54272	363.68248	-1111.72653	514.22325	405.78602	-1027.44362	503.42319	475.24227	-793.11272	198.69528	527.37534	-865.74120	191.09299	500.44292	-853.59207	200.14307	585.42336	-1054.32335	158.12412	409.49383	-1076.14380	153.09362	486.88301	-992.35573	165.01459	447.56863	-1027.06848	1188.09952	326.88381	-872.47437	1185.34004	460.53947 
37	27.000	-572.23755	1090.04204	-128.16043	-573.13812	1068.72383	-307.78625	-344.74178	1054.52995	-244.47514	-488.65509	1428.24066	-155.61995	-408.04165	1478.67004	-236.60067	-526.46225	1628.94562	-81.57675	-501.53370	1575.17792	-251.37249	-632.73235	1416.71204	-294.29668	-646.50078	1135.73814	-356.50108	-657.08519	1145.30479	-415.85438	-590.93372	1125.29152	-432.03918	-700.39909	976.99089	-218.10848	-702.62871	1011.49673	-192.64236	-659.89250	1020.64796	-185.19070	-266.19736	1378.63113	-116.05800	-175.24944	1072.55508	-162.42233	-221.73702	1061.45233	-201.53780	-234.98924	1102.23297	-121.31032	-391.97144	949.02924	-53.17801	-384.64104	962.11998	-11.99116	-401.29917	1008.21365	-19.11575	-648.60611	915.69405	-261.50463	-307.98962	904.12079	-133.13695	-644.20387	413.55785	-281.69067	-623.59428	460.67905	-355.71217	-548.30017	422.84721	-272.14474	-344.75571	473.95020	-115.97000	-284.17706	496.23569	-212.10917	-403.39783	467.28092	-194.06746	-633.75053	142.96298	-331.41983	-562.70401	135.61531	-342.21252	-603.37933	137.66263	-396.71959	-277.58371	132.37899	-171.06903	-261.27960	130.69334	-238.59009	-334.36405	125.09610	-207.81519	-379.94530	1559.97772	-160.51294	-418.76461	1075.63560	-85.68312	-993.17421	1170.11116	575.90553	-1124.98070	1175.37628	456.68373	-985.54192	1601.20117	422.80983	-1082.34642	1649.42307	483.93097	-949.09950	1774.95987	283.02992	-996.55067	1801.61942	453.53210	-1109.20349	1774.76181	353.80379	-898.21457	1561.98898	584.87320	-858.68774	1191.29677	579.97963	-824.32678	1211.14983	630.74718	-896.75278	1196.12564	662.36603	-772.62657	924.15039	578.24009	-743.49327	939.14543	551.30764	-768.80196	945.91133	510.18410	-1211.76140	1539.93500	353.62659	-1203.65555	1168.75214	295.99821	-1186.80428	1148.91220	369.44386	-1141.25366	1175.75630	303.03904	-1147.14020	921.21880	266.61165	-1117.70897	938.75519	236.84446	-1082.96837	938.87642	269.36676	-874.47906	1034.08730	575.61394	-1133.80501	1026.27480	335.55046	-763.79707	567.43061	419.33006	-793.98010	564.22791	529.44618	-877.54868	542.84325	441.34335	-1017.35474	467.73979	365.03208	-1112.69203	514.26334	407.27196	-1028.46931	503.42442	476.55876	-792.70142	199.37790	526.97617	-865.17563	191.94609	499.78252	-853.23517	200.88461	584.67331	-1054.61342	158.24221	409.81911	-1076.28876	152.88103	487.20486	-992.56424	165.16848	447.84355	-1027.64687	1188.15605	327.04014	-872.65182	1185.78049	460.13783 
